<svg xmlns="http://www.w3.org/2000/svg" xmlns:v="https://svgstorm.com"
viewBox = "0 0 1024 1024"
width="1024"
height="1024">
<g fill="None" fill-opacity="0.0" stroke="#FDFEFE" stroke-opacity="1.00" stroke-width="0.3"><path d="
M 0.00 470.00 
C 9.50 350.07 61.31 236.63 147.75 149.75 C 234.20 62.87 346.73 11.44 466.00 0.00
L 0.00 0.00
L 0.00 470.00 Z"/>
</g>
<g fill="None" fill-opacity="0.0" stroke="#9E9F9F" stroke-opacity="1.00" stroke-width="0.3"><path d="
M 0.00 470.00 
L 0.00 555.00
C 10.08 674.75 61.48 787.36 147.75 874.25 C 234.02 961.13 345.95 1012.19 465.00 1024.00
L 558.00 1024.00
C 677.43 1012.24 789.60 961.39 876.25 874.25 C 962.89 787.11 1014.20 673.17 1024.00 553.00
L 1024.00 466.00
C 1011.95 347.78 961.80 235.21 875.75 149.25 C 789.71 63.28 678.24 12.31 560.00 0.00
L 466.00 0.00
C 346.73 11.44 234.20 62.87 147.75 149.75 C 61.31 236.63 9.50 350.07 0.00 470.00
M 548.00 2.00 
C 584.39 5.52 628.16 13.10 662.07 23.93 C 695.99 34.75 727.59 47.46 757.70 64.31 C 787.80 81.15 812.87 97.46 838.75 119.25 C 864.62 141.05 885.37 160.93 906.75 187.25 C 928.14 213.57 944.63 238.11 961.30 268.70 C 977.98 299.29 990.18 330.24 1000.98 365.02 C 1011.77 399.81 1018.55 442.43 1021.00 481.00 C 1023.45 519.57 1020.51 570.66 1013.07 607.07 C 1005.64 643.48 996.40 679.70 982.07 712.07 C 967.75 744.45 953.54 772.22 934.23 800.23 C 914.92 828.24 896.40 849.98 872.25 874.25 C 848.10 898.52 825.90 916.65 797.75 935.75 C 769.61 954.86 742.00 969.68 709.31 983.31 C 676.61 996.94 641.04 1007.60 604.33 1014.33 C 567.62 1021.06 515.60 1023.47 476.99 1021.01 C 438.38 1018.55 396.49 1011.29 361.78 1000.22 C 327.06 989.16 296.38 976.84 265.92 960.08 C 235.46 943.32 211.16 926.68 185.25 904.75 C 159.34 882.83 138.54 863.22 117.25 836.75 C 95.95 810.28 79.41 785.88 62.69 755.31 C 45.98 724.73 33.22 693.93 23.02 658.98 C 12.82 624.03 4.58 581.99 2.67 543.33 C 0.76 504.67 3.11 452.63 10.00 416.00 C 16.89 379.37 28.81 344.77 41.92 311.92 C 55.04 279.08 71.19 252.38 90.25 224.25 C 109.31 196.12 127.18 173.79 151.75 149.75 C 176.32 125.72 197.64 106.86 226.25 88.25 C 254.85 69.63 282.03 54.26 315.03 41.02 C 348.02 27.79 382.40 15.46 419.67 9.67 C 456.94 3.88 507.71 -1.90 548.00 2.00 Z"/>
</g>
<g fill="None" fill-opacity="0.0" stroke="#FEFEFE" stroke-opacity="1.00" stroke-width="0.3"><path d="
M 1024.00 466.00 
L 1024.00 0.00
L 560.00 0.00
C 678.24 12.31 789.71 63.28 875.75 149.25 C 961.80 235.21 1011.95 347.78 1024.00 466.00 Z"/>
</g>
<g fill="None" fill-opacity="0.0" stroke="#FEFEFE" stroke-opacity="1.00" stroke-width="0.3"><path d="
M 548.00 2.00 
C 507.71 -1.90 456.94 3.88 419.67 9.67 C 382.40 15.46 348.02 27.79 315.03 41.02 C 282.03 54.26 254.85 69.63 226.25 88.25 C 197.64 106.86 176.32 125.72 151.75 149.75 C 127.18 173.79 109.31 196.12 90.25 224.25 C 71.19 252.38 55.04 279.08 41.92 311.92 C 28.81 344.77 16.89 379.37 10.00 416.00 C 3.11 452.63 0.76 504.67 2.67 543.33 C 4.58 581.99 12.82 624.03 23.02 658.98 C 33.22 693.93 45.98 724.73 62.69 755.31 C 79.41 785.88 95.95 810.28 117.25 836.75 C 138.54 863.22 159.34 882.83 185.25 904.75 C 211.16 926.68 235.46 943.32 265.92 960.08 C 296.38 976.84 327.06 989.16 361.78 1000.22 C 396.49 1011.29 438.38 1018.55 476.99 1021.01 C 515.60 1023.47 567.62 1021.06 604.33 1014.33 C 641.04 1007.60 676.61 996.94 709.31 983.31 C 742.00 969.68 769.61 954.86 797.75 935.75 C 825.90 916.65 848.10 898.52 872.25 874.25 C 896.40 849.98 914.92 828.24 934.23 800.23 C 953.54 772.22 967.75 744.45 982.07 712.07 C 996.40 679.70 1005.64 643.48 1013.07 607.07 C 1020.51 570.66 1023.45 519.57 1021.00 481.00 C 1018.55 442.43 1011.77 399.81 1000.98 365.02 C 990.18 330.24 977.98 299.29 961.30 268.70 C 944.63 238.11 928.14 213.57 906.75 187.25 C 885.37 160.93 864.62 141.05 838.75 119.25 C 812.87 97.46 787.80 81.15 757.70 64.31 C 727.59 47.46 695.99 34.75 662.07 23.93 C 628.16 13.10 584.39 5.52 548.00 2.00
M 539.00 214.00 
C 614.64 221.32 683.95 255.64 736.75 314.25 C 789.55 372.85 817.04 459.22 810.00 538.00 C 802.96 616.78 768.48 683.14 709.75 736.75 C 651.03 790.37 564.92 816.64 486.00 810.00 C 407.08 803.36 341.58 768.48 287.75 710.25 C 233.91 652.03 206.87 565.66 214.00 487.00 C 221.13 408.34 253.91 341.33 313.75 287.75 C 373.60 234.18 456.92 206.06 539.00 214.00 Z"/>
</g>
<g fill="None" fill-opacity="0.0" stroke="#9D9E9D" stroke-opacity="1.00" stroke-width="0.3"><path d="
M 539.00 214.00 
C 456.92 206.06 373.60 234.18 313.75 287.75 C 253.91 341.33 221.13 408.34 214.00 487.00 C 206.87 565.66 233.91 652.03 287.75 710.25 C 341.58 768.48 407.08 803.36 486.00 810.00 C 564.92 816.64 651.03 790.37 709.75 736.75 C 768.48 683.14 802.96 616.78 810.00 538.00 C 817.04 459.22 789.55 372.85 736.75 314.25 C 683.95 255.64 614.64 221.32 539.00 214.00
M 529.00 216.00 
C 567.48 219.72 611.49 229.78 645.23 247.77 C 678.97 265.76 703.37 282.64 729.75 311.25 C 756.14 339.86 771.63 366.25 786.93 402.07 C 802.22 437.90 809.67 487.86 807.22 528.22 C 804.77 568.58 794.63 611.37 776.70 645.70 C 758.76 680.02 741.05 702.94 712.75 729.75 C 684.45 756.56 657.64 771.57 621.92 786.92 C 586.20 802.28 536.02 809.60 495.78 807.22 C 455.53 804.85 412.38 794.74 378.31 776.70 C 344.23 758.65 320.23 741.49 293.75 713.25 C 267.28 685.01 252.07 657.47 237.02 621.98 C 221.98 586.48 213.41 535.27 216.00 495.00 C 218.60 454.73 229.73 412.47 247.31 378.31 C 264.88 344.14 282.89 320.41 311.25 294.25 C 339.61 268.09 366.03 251.25 402.08 237.08 C 438.12 222.90 487.56 211.99 529.00 216.00 Z"/>
</g>
<g fill="None" fill-opacity="0.0" stroke="#F7F6F6" stroke-opacity="1.00" stroke-width="0.3"><path d="
M 529.00 216.00 
C 487.56 211.99 438.12 222.90 402.08 237.08 C 366.03 251.25 339.61 268.09 311.25 294.25 C 282.89 320.41 264.88 344.14 247.31 378.31 C 229.73 412.47 218.60 454.73 216.00 495.00 C 213.41 535.27 221.98 586.48 237.02 621.98 C 252.07 657.47 267.28 685.01 293.75 713.25 C 320.23 741.49 344.23 758.65 378.31 776.70 C 412.38 794.74 455.53 804.85 495.78 807.22 C 536.02 809.60 586.20 802.28 621.92 786.92 C 657.64 771.57 684.45 756.56 712.75 729.75 C 741.05 702.94 758.76 680.02 776.70 645.70 C 794.63 611.37 804.77 568.58 807.22 528.22 C 809.67 487.86 802.22 437.90 786.93 402.07 C 771.63 366.25 756.14 339.86 729.75 311.25 C 703.37 282.64 678.97 265.76 645.23 247.77 C 611.49 229.78 567.48 219.72 529.00 216.00
M 534.00 222.00 
C 607.98 229.16 676.61 260.79 728.25 317.75 C 779.88 374.72 808.17 457.07 802.00 534.00 C 795.83 610.93 763.12 675.75 706.75 728.75 C 650.38 781.75 566.82 807.04 490.00 802.00 C 413.18 796.96 348.25 762.31 295.75 706.25 C 243.26 650.19 215.89 566.59 222.00 490.00 C 228.11 413.41 260.41 347.50 317.75 295.75 C 375.09 243.99 454.96 214.35 534.00 222.00 Z"/>
</g>
<g fill="None" fill-opacity="0.0" stroke="#9D9E9E" stroke-opacity="1.00" stroke-width="0.3"><path d="
M 534.00 222.00 
C 454.96 214.35 375.09 243.99 317.75 295.75 C 260.41 347.50 228.11 413.41 222.00 490.00 C 215.89 566.59 243.26 650.19 295.75 706.25 C 348.25 762.31 413.18 796.96 490.00 802.00 C 566.82 807.04 650.38 781.75 706.75 728.75 C 763.12 675.75 795.83 610.93 802.00 534.00 C 808.17 457.07 779.88 374.72 728.25 317.75 C 676.61 260.79 607.98 229.16 534.00 222.00
M 540.00 225.00 
C 576.08 229.36 617.64 240.86 649.23 258.77 C 680.82 276.69 704.95 294.80 729.25 322.75 C 753.55 350.71 769.10 378.70 782.32 413.68 C 795.54 448.66 802.89 500.04 798.67 538.67 C 794.45 577.30 783.85 615.93 765.70 648.70 C 747.54 681.46 729.58 703.42 701.75 728.75 C 673.92 754.08 646.30 768.06 611.31 782.31 C 576.31 796.55 523.95 801.55 485.00 798.00 C 446.05 794.45 407.49 783.19 374.77 765.23 C 342.05 747.27 319.37 729.37 294.75 701.25 C 270.13 673.13 254.61 645.75 241.22 610.78 C 227.84 575.80 220.85 523.49 225.00 485.00 C 229.15 446.51 240.47 407.90 258.31 375.31 C 276.14 342.71 294.03 319.85 322.25 295.25 C 350.47 270.65 377.21 254.73 413.02 242.02 C 448.84 229.32 499.00 220.04 540.00 225.00 Z"/>
</g>
<g fill="None" fill-opacity="0.0" stroke="#FEFEFE" stroke-opacity="1.00" stroke-width="0.3"><path d="
M 540.00 225.00 
C 499.00 220.04 448.84 229.32 413.02 242.02 C 377.21 254.73 350.47 270.65 322.25 295.25 C 294.03 319.85 276.14 342.71 258.31 375.31 C 240.47 407.90 229.15 446.51 225.00 485.00 C 220.85 523.49 227.84 575.80 241.22 610.78 C 254.61 645.75 270.13 673.13 294.75 701.25 C 319.37 729.37 342.05 747.27 374.77 765.23 C 407.49 783.19 446.05 794.45 485.00 798.00 C 523.95 801.55 576.31 796.55 611.31 782.31 C 646.30 768.06 673.92 754.08 701.75 728.75 C 729.58 703.42 747.54 681.46 765.70 648.70 C 783.85 615.93 794.45 577.30 798.67 538.67 C 802.89 500.04 795.54 448.66 782.32 413.68 C 769.10 378.70 753.55 350.71 729.25 322.75 C 704.95 294.80 680.82 276.69 649.23 258.77 C 617.64 240.86 576.08 229.36 540.00 225.00
M 670.00 603.00 
C 664.80 621.36 641.30 620.54 633.00 605.00
C 630.78 600.85 630.97 597.33 632.00 593.00
C 632.18 591.32 632.57 590.54 633.00 589.00
C 636.04 578.20 634.12 563.36 634.00 552.00 C 633.88 540.64 633.64 529.87 643.25 523.25 C 652.85 516.62 653.69 511.04 662.25 504.25 C 670.81 497.46 672.25 492.51 681.25 485.25 C 690.24 477.99 692.87 470.24 691.00 457.00 C 689.13 443.76 692.99 434.07 691.00 419.00 C 689.01 403.93 703.07 407.18 717.00 407.00 C 730.93 406.82 724.90 424.35 726.00 436.00 C 727.10 447.65 724.39 462.34 726.00 474.00 C 727.61 485.66 724.30 494.64 715.25 501.25 C 706.20 507.86 704.99 513.75 696.25 520.25 C 687.51 526.75 687.28 532.75 677.25 539.25 C 667.22 545.75 668.92 556.67 668.00 568.00 C 667.09 579.33 672.84 592.95 670.00 603.00
M 387.00 466.00 
C 396.39 458.60 403.72 451.76 412.25 442.25 C 420.78 432.73 428.67 428.21 437.25 417.25 C 445.82 406.28 464.01 406.65 478.00 408.00
C 477.70 424.75 478.40 442.33 478.00 459.00 C 477.60 475.67 478.77 493.63 478.00 510.00 C 477.23 526.37 479.64 545.36 478.00 561.00 C 476.36 576.64 483.26 595.46 477.23 608.23 C 471.20 621.00 449.89 620.02 444.70 607.30 C 439.51 594.59 446.61 577.72 445.00 562.00 C 443.39 546.28 445.83 527.45 445.00 511.00 C 444.17 494.55 445.62 475.67 445.00 459.00
C 425.42 475.43 407.21 495.61 389.00 514.00
C 368.92 497.74 351.55 476.39 332.00 459.00
C 332.00 511.33 332.00 563.67 332.00 616.00
C 320.67 616.00 309.33 616.00 298.00 616.00
C 298.00 546.67 298.00 477.33 298.00 408.00
C 311.47 406.99 329.78 406.05 338.25 416.75 C 346.71 427.46 354.49 431.71 362.75 441.25 C 371.02 450.78 379.32 456.46 387.00 466.00
M 619.00 532.00 
C 615.50 532.96 609.53 523.24 605.75 520.25 C 601.97 517.26 595.88 510.31 592.00 507.00
C 584.88 500.92 577.47 492.59 570.75 486.25 C 564.04 479.90 563.69 478.78 564.00 471.00 C 564.31 463.22 563.37 456.79 564.00 450.00 C 564.63 443.21 562.64 434.65 564.00 429.00 C 565.36 423.35 560.68 411.02 565.00 408.00
C 568.67 405.43 576.37 409.27 581.00 408.00 C 585.63 406.73 593.11 408.95 598.00 408.00
C 597.28 422.51 598.96 441.99 598.00 456.00 C 597.05 470.02 609.96 474.91 617.75 484.25 C 625.55 493.58 633.80 499.56 642.00 508.00
C 636.21 516.89 626.75 524.47 619.00 532.00
M 591.00 520.00 
C 604.14 531.23 598.08 547.42 599.00 564.00 C 599.92 580.58 598.31 600.15 599.00 617.00
C 587.50 616.33 574.68 618.33 564.00 616.00
C 562.55 599.92 563.89 576.51 564.00 561.00 C 564.11 545.49 561.00 529.52 544.00 526.00 C 526.99 522.48 506.34 528.64 489.00 526.00
C 489.00 514.33 489.00 502.67 489.00 491.00
C 508.59 491.21 535.10 490.72 554.00 491.00 C 572.90 491.28 576.03 511.87 591.00 520.00
M 384.00 551.00 
C 381.78 554.98 376.50 558.55 379.98 564.02 C 383.46 569.50 387.71 570.24 393.07 568.07 C 398.44 565.91 399.05 559.44 397.00 555.00
C 395.12 551.60 389.58 548.12 392.00 543.00 C 394.42 537.88 389.65 530.10 392.00 526.00 C 394.35 521.90 397.33 519.21 401.00 517.00
C 402.32 516.21 403.29 514.79 405.00 515.00
C 402.18 533.59 409.40 552.00 406.00 569.00
C 401.99 577.59 392.63 581.51 384.00 579.00
C 370.00 574.92 367.88 562.23 371.00 550.00
C 373.90 538.65 370.91 525.80 372.00 514.00
C 385.95 521.51 387.43 537.53 384.00 551.00 Z"/>
</g>
<g fill="None" fill-opacity="0.0" stroke="#9BD1E4" stroke-opacity="1.00" stroke-width="0.3"><path d="
M 633.00 589.00 
C 637.40 578.83 635.48 562.77 635.00 551.00 C 634.52 539.23 635.86 528.58 645.75 521.75 C 655.64 514.92 656.95 508.77 665.75 501.75 C 674.56 494.74 676.61 489.19 685.75 481.75 C 694.90 474.32 691.82 459.92 692.00 448.00 C 692.18 436.08 691.86 420.27 692.00 408.00
C 703.00 408.00 714.00 408.00 725.00 408.00
C 725.82 424.07 723.91 443.24 725.00 459.00 C 726.09 474.76 726.48 490.47 715.25 500.25 C 704.02 510.03 698.99 515.53 689.75 525.75 C 680.51 535.97 669.21 539.96 667.00 554.00 C 664.79 568.04 668.93 588.94 670.00 603.00
C 672.84 592.95 667.09 579.33 668.00 568.00 C 668.92 556.67 667.22 545.75 677.25 539.25 C 687.28 532.75 687.51 526.75 696.25 520.25 C 704.99 513.75 706.20 507.86 715.25 501.25 C 724.30 494.64 727.61 485.66 726.00 474.00 C 724.39 462.34 727.10 447.65 726.00 436.00 C 724.90 424.35 730.93 406.82 717.00 407.00 C 703.07 407.18 689.01 403.93 691.00 419.00 C 692.99 434.07 689.13 443.76 691.00 457.00 C 692.87 470.24 690.24 477.99 681.25 485.25 C 672.25 492.51 670.81 497.46 662.25 504.25 C 653.69 511.04 652.85 516.62 643.25 523.25 C 633.64 529.87 633.88 540.64 634.00 552.00 C 634.12 563.36 636.04 578.20 633.00 589.00 Z"/>
</g>
<g fill="None" fill-opacity="0.0" stroke="#475259" stroke-opacity="1.00" stroke-width="0.3"><path d="
M 387.00 466.00 
C 379.32 456.46 371.02 450.78 362.75 441.25 C 354.49 431.71 346.71 427.46 338.25 416.75 C 329.78 406.05 311.47 406.99 298.00 408.00
C 298.00 477.33 298.00 546.67 298.00 616.00
C 309.33 616.00 320.67 616.00 332.00 616.00
C 332.00 563.67 332.00 511.33 332.00 459.00
C 351.55 476.39 368.92 497.74 389.00 514.00
C 407.21 495.61 425.42 475.43 445.00 459.00
C 445.62 475.67 444.17 494.55 445.00 511.00 C 445.83 527.45 443.39 546.28 445.00 562.00 C 446.61 577.72 439.51 594.59 444.70 607.30 C 449.89 620.02 471.20 621.00 477.23 608.23 C 483.26 595.46 476.36 576.64 478.00 561.00 C 479.64 545.36 477.23 526.37 478.00 510.00 C 478.77 493.63 477.60 475.67 478.00 459.00 C 478.40 442.33 477.70 424.75 478.00 408.00
C 464.01 406.65 445.82 406.28 437.25 417.25 C 428.67 428.21 420.78 432.73 412.25 442.25 C 403.72 451.76 396.39 458.60 387.00 466.00
M 465.00 525.00 
C 465.00 546.00 465.00 567.00 465.00 588.00
C 472.83 590.34 472.16 600.07 466.75 604.75 C 461.34 609.43 448.04 602.32 452.00 595.00 C 455.96 587.68 457.87 580.88 457.00 572.00 C 456.13 563.12 457.01 553.36 457.00 545.00 C 456.99 536.64 453.31 522.83 465.00 525.00 Z"/>
</g>
<g fill="None" fill-opacity="0.0" stroke="#A3ABB1" stroke-opacity="1.00" stroke-width="0.3"><path d="
M 592.00 507.00 
C 591.77 506.84 592.00 506.00 592.00 506.00
C 580.09 495.83 566.11 487.76 565.00 471.00 C 563.89 454.24 565.83 425.82 565.00 408.00
C 560.68 411.02 565.36 423.35 564.00 429.00 C 562.64 434.65 564.63 443.21 564.00 450.00 C 563.37 456.79 564.31 463.22 564.00 471.00 C 563.69 478.78 564.04 479.90 570.75 486.25 C 577.47 492.59 584.88 500.92 592.00 507.00 Z"/>
</g>
<g fill="None" fill-opacity="0.0" stroke="#444F57" stroke-opacity="1.00" stroke-width="0.3"><path d="
M 592.00 506.00 
C 595.85 509.29 601.21 516.16 605.25 518.75 C 609.28 521.35 614.50 532.00 619.00 532.00
C 626.75 524.47 636.21 516.89 642.00 508.00
C 633.80 499.56 625.55 493.58 617.75 484.25 C 609.96 474.91 597.05 470.02 598.00 456.00 C 598.96 441.99 597.28 422.51 598.00 408.00
C 593.11 408.95 585.63 406.73 581.00 408.00 C 576.37 409.27 568.67 405.43 565.00 408.00
C 565.83 425.82 563.89 454.24 565.00 471.00 C 566.11 487.76 580.09 495.83 592.00 506.00 Z"/>
</g>
<g fill="None" fill-opacity="0.0" stroke="#0993D5" stroke-opacity="1.00" stroke-width="0.3"><path d="
M 633.00 589.00 
C 632.57 590.54 632.18 591.32 632.00 593.00
C 631.61 596.74 631.74 601.59 633.00 605.00
C 641.30 620.54 664.80 621.36 670.00 603.00
C 668.93 588.94 664.79 568.04 667.00 554.00 C 669.21 539.96 680.51 535.97 689.75 525.75 C 698.99 515.53 704.02 510.03 715.25 500.25 C 726.48 490.47 726.09 474.76 725.00 459.00 C 723.91 443.24 725.82 424.07 725.00 408.00
C 714.00 408.00 703.00 408.00 692.00 408.00
C 691.86 420.27 692.18 436.08 692.00 448.00 C 691.82 459.92 694.90 474.32 685.75 481.75 C 676.61 489.19 674.56 494.74 665.75 501.75 C 656.95 508.77 655.64 514.92 645.75 521.75 C 635.86 528.58 634.52 539.23 635.00 551.00 C 635.48 562.77 637.40 578.83 633.00 589.00
M 655.00 543.00 
C 655.00 558.00 655.00 573.00 655.00 588.00
C 666.32 589.72 660.06 612.25 648.00 606.00 C 635.94 599.75 647.37 589.93 647.00 580.00 C 646.63 570.07 647.28 553.53 647.00 543.00
C 649.67 543.00 652.33 543.00 655.00 543.00 Z"/>
</g>
<g fill="None" fill-opacity="0.0" stroke="#71C1E0" stroke-opacity="1.00" stroke-width="0.3"><path d="
M 564.00 616.00 
C 564.00 616.04 565.00 616.00 565.00 616.00
C 566.18 602.95 565.03 587.99 565.00 575.00 C 564.97 562.01 568.32 547.75 560.25 537.75 C 552.18 527.75 545.37 523.41 532.00 525.00 C 518.63 526.59 503.52 523.81 490.00 525.00
C 490.00 514.00 490.00 503.00 490.00 492.00
C 504.86 490.81 522.41 493.59 537.00 492.00 C 551.59 490.41 564.35 492.00 572.75 503.25 C 581.15 514.49 588.34 517.13 597.00 527.00
C 595.91 524.68 592.75 521.75 591.00 520.00
C 576.03 511.87 572.90 491.28 554.00 491.00 C 535.10 490.72 508.59 491.21 489.00 491.00
C 489.00 502.67 489.00 514.33 489.00 526.00
C 506.34 528.64 526.99 522.48 544.00 526.00 C 561.00 529.52 564.11 545.49 564.00 561.00 C 563.89 576.51 562.55 599.92 564.00 616.00 Z"/>
</g>
<g fill="None" fill-opacity="0.0" stroke="#0392D4" stroke-opacity="1.00" stroke-width="0.3"><path d="
M 565.00 616.00 
C 576.00 615.99 587.00 616.01 598.00 616.00
C 597.33 586.50 599.33 555.68 597.00 527.00
C 588.34 517.13 581.15 514.49 572.75 503.25 C 564.35 492.00 551.59 490.41 537.00 492.00 C 522.41 493.59 504.86 490.81 490.00 492.00
C 490.00 503.00 490.00 514.00 490.00 525.00
C 503.52 523.81 518.63 526.59 532.00 525.00 C 545.37 523.41 552.18 527.75 560.25 537.75 C 568.32 547.75 564.97 562.01 565.00 575.00 C 565.03 587.99 566.18 602.95 565.00 616.00 Z"/>
</g>
<g fill="None" fill-opacity="0.0" stroke="#626D78" stroke-opacity="1.00" stroke-width="0.3"><path d="
M 592.00 507.00 
C 595.88 510.31 601.97 517.26 605.75 520.25 C 609.53 523.24 615.50 532.96 619.00 532.00
C 614.50 532.00 609.28 521.35 605.25 518.75 C 601.21 516.16 595.85 509.29 592.00 506.00
C 592.00 506.00 591.77 506.84 592.00 507.00 Z"/>
</g>
<g fill="None" fill-opacity="0.0" stroke="#4FB2D8" stroke-opacity="1.00" stroke-width="0.3"><path d="
M 371.00 550.00 
C 374.92 540.25 372.23 527.23 373.00 516.00
C 386.78 523.03 384.23 537.89 384.00 551.00
C 387.43 537.53 385.95 521.51 372.00 514.00
C 370.91 525.80 373.90 538.65 371.00 550.00 Z"/>
</g>
<g fill="None" fill-opacity="0.0" stroke="#1294D6" stroke-opacity="1.00" stroke-width="0.3"><path d="
M 401.00 517.00 
C 388.66 525.93 391.79 543.74 397.00 555.00
C 399.05 559.44 398.44 565.91 393.07 568.07 C 387.71 570.24 383.46 569.50 379.98 564.02 C 376.50 558.55 381.78 554.98 384.00 551.00
C 384.23 537.89 386.78 523.03 373.00 516.00
C 372.23 527.23 374.92 540.25 371.00 550.00
C 367.88 562.23 370.00 574.92 384.00 579.00
C 392.68 580.38 401.58 576.28 406.00 569.00
C 409.40 552.00 402.18 533.59 405.00 515.00
C 403.29 514.79 402.32 516.21 401.00 517.00 Z"/>
</g>
<g fill="None" fill-opacity="0.0" stroke="#69BEE0" stroke-opacity="1.00" stroke-width="0.3"><path d="
M 397.00 555.00 
C 391.79 543.74 388.66 525.93 401.00 517.00
C 397.33 519.21 394.35 521.90 392.00 526.00 C 389.65 530.10 394.42 537.88 392.00 543.00 C 389.58 548.12 395.12 551.60 397.00 555.00 Z"/>
</g>
<g fill="None" fill-opacity="0.0" stroke="#D4EBF0" stroke-opacity="1.00" stroke-width="0.3"><path d="
M 597.00 527.00 
C 599.33 555.68 597.33 586.50 598.00 616.00
C 587.00 616.01 576.00 615.99 565.00 616.00
C 565.00 616.00 564.00 616.04 564.00 616.00
C 574.68 618.33 587.50 616.33 599.00 617.00
C 598.31 600.15 599.92 580.58 599.00 564.00 C 598.08 547.42 604.14 531.23 591.00 520.00
C 592.75 521.75 595.91 524.68 597.00 527.00 Z"/>
</g>
<g fill="None" fill-opacity="0.0" stroke="#F0F2F3" stroke-opacity="1.00" stroke-width="0.3"><path d="
M 465.00 525.00 
C 453.31 522.83 456.99 536.64 457.00 545.00 C 457.01 553.36 456.13 563.12 457.00 572.00 C 457.87 580.88 455.96 587.68 452.00 595.00 C 448.04 602.32 461.34 609.43 466.75 604.75 C 472.16 600.07 472.83 590.34 465.00 588.00
C 465.00 567.00 465.00 546.00 465.00 525.00 Z"/>
</g>
<g fill="None" fill-opacity="0.0" stroke="#F0F7F8" stroke-opacity="1.00" stroke-width="0.3"><path d="
M 655.00 543.00 
C 652.33 543.00 649.67 543.00 647.00 543.00
C 647.28 553.53 646.63 570.07 647.00 580.00 C 647.37 589.93 635.94 599.75 648.00 606.00 C 660.06 612.25 666.32 589.72 655.00 588.00
C 655.00 573.00 655.00 558.00 655.00 543.00 Z"/>
</g>
<g fill="None" fill-opacity="0.0" stroke="#FEFEFE" stroke-opacity="1.00" stroke-width="0.3"><path d="
M 558.00 1024.00 
L 1024.00 1024.00
L 1024.00 553.00
C 1014.20 673.17 962.89 787.11 876.25 874.25 C 789.60 961.39 677.43 1012.24 558.00 1024.00 Z"/>
</g>
<g fill="None" fill-opacity="0.0" stroke="#FEFEFE" stroke-opacity="1.00" stroke-width="0.3"><path d="
M 0.00 1024.00 
L 465.00 1024.00
C 345.95 1012.19 234.02 961.13 147.75 874.25 C 61.48 787.36 10.08 674.75 0.00 555.00
L 0.00 1024.00 Z"/>
</g>
<g fill="None" fill-opacity="0.0" stroke="#A2D1E1" stroke-opacity="1.00" stroke-width="0.3"><path d="
M 384.00 579.00 
C 392.63 581.51 401.99 577.59 406.00 569.00
C 401.58 576.28 392.68 580.38 384.00 579.00 Z"/>
</g>
<g fill="None" fill-opacity="0.0" stroke="#8CD5E7" stroke-opacity="1.00" stroke-width="0.3"><path d="
M 633.00 605.00 
C 631.74 601.59 631.61 596.74 632.00 593.00
C 630.97 597.33 630.78 600.85 633.00 605.00 Z"/>
</g>
<g fill="#FDFEFE" fill-opacity="1.00" stroke="None">
<path d="
M 0.00 470.00 
C 9.50 350.07 61.31 236.63 147.75 149.75 C 234.20 62.87 346.73 11.44 466.00 0.00
L 0.00 0.00
L 0.00 470.00 Z"/>
</g>
<g fill="#9E9F9F" fill-opacity="1.00" stroke="None">
<path d="
M 0.00 470.00 
L 0.00 555.00
C 10.08 674.75 61.48 787.36 147.75 874.25 C 234.02 961.13 345.95 1012.19 465.00 1024.00
L 558.00 1024.00
C 677.43 1012.24 789.60 961.39 876.25 874.25 C 962.89 787.11 1014.20 673.17 1024.00 553.00
L 1024.00 466.00
C 1011.95 347.78 961.80 235.21 875.75 149.25 C 789.71 63.28 678.24 12.31 560.00 0.00
L 466.00 0.00
C 346.73 11.44 234.20 62.87 147.75 149.75 C 61.31 236.63 9.50 350.07 0.00 470.00
M 548.00 2.00 
C 584.39 5.52 628.16 13.10 662.07 23.93 C 695.99 34.75 727.59 47.46 757.70 64.31 C 787.80 81.15 812.87 97.46 838.75 119.25 C 864.62 141.05 885.37 160.93 906.75 187.25 C 928.14 213.57 944.63 238.11 961.30 268.70 C 977.98 299.29 990.18 330.24 1000.98 365.02 C 1011.77 399.81 1018.55 442.43 1021.00 481.00 C 1023.45 519.57 1020.51 570.66 1013.07 607.07 C 1005.64 643.48 996.40 679.70 982.07 712.07 C 967.75 744.45 953.54 772.22 934.23 800.23 C 914.92 828.24 896.40 849.98 872.25 874.25 C 848.10 898.52 825.90 916.65 797.75 935.75 C 769.61 954.86 742.00 969.68 709.31 983.31 C 676.61 996.94 641.04 1007.60 604.33 1014.33 C 567.62 1021.06 515.60 1023.47 476.99 1021.01 C 438.38 1018.55 396.49 1011.29 361.78 1000.22 C 327.06 989.16 296.38 976.84 265.92 960.08 C 235.46 943.32 211.16 926.68 185.25 904.75 C 159.34 882.83 138.54 863.22 117.25 836.75 C 95.95 810.28 79.41 785.88 62.69 755.31 C 45.98 724.73 33.22 693.93 23.02 658.98 C 12.82 624.03 4.58 581.99 2.67 543.33 C 0.76 504.67 3.11 452.63 10.00 416.00 C 16.89 379.37 28.81 344.77 41.92 311.92 C 55.04 279.08 71.19 252.38 90.25 224.25 C 109.31 196.12 127.18 173.79 151.75 149.75 C 176.32 125.72 197.64 106.86 226.25 88.25 C 254.85 69.63 282.03 54.26 315.03 41.02 C 348.02 27.79 382.40 15.46 419.67 9.67 C 456.94 3.88 507.71 -1.90 548.00 2.00 Z"/>
</g>
<g fill="#FEFEFE" fill-opacity="1.00" stroke="None">
<path d="
M 1024.00 466.00 
L 1024.00 0.00
L 560.00 0.00
C 678.24 12.31 789.71 63.28 875.75 149.25 C 961.80 235.21 1011.95 347.78 1024.00 466.00 Z"/>
</g>
<g fill="#FEFEFE" fill-opacity="1.00" stroke="None">
<path d="
M 548.00 2.00 
C 507.71 -1.90 456.94 3.88 419.67 9.67 C 382.40 15.46 348.02 27.79 315.03 41.02 C 282.03 54.26 254.85 69.63 226.25 88.25 C 197.64 106.86 176.32 125.72 151.75 149.75 C 127.18 173.79 109.31 196.12 90.25 224.25 C 71.19 252.38 55.04 279.08 41.92 311.92 C 28.81 344.77 16.89 379.37 10.00 416.00 C 3.11 452.63 0.76 504.67 2.67 543.33 C 4.58 581.99 12.82 624.03 23.02 658.98 C 33.22 693.93 45.98 724.73 62.69 755.31 C 79.41 785.88 95.95 810.28 117.25 836.75 C 138.54 863.22 159.34 882.83 185.25 904.75 C 211.16 926.68 235.46 943.32 265.92 960.08 C 296.38 976.84 327.06 989.16 361.78 1000.22 C 396.49 1011.29 438.38 1018.55 476.99 1021.01 C 515.60 1023.47 567.62 1021.06 604.33 1014.33 C 641.04 1007.60 676.61 996.94 709.31 983.31 C 742.00 969.68 769.61 954.86 797.75 935.75 C 825.90 916.65 848.10 898.52 872.25 874.25 C 896.40 849.98 914.92 828.24 934.23 800.23 C 953.54 772.22 967.75 744.45 982.07 712.07 C 996.40 679.70 1005.64 643.48 1013.07 607.07 C 1020.51 570.66 1023.45 519.57 1021.00 481.00 C 1018.55 442.43 1011.77 399.81 1000.98 365.02 C 990.18 330.24 977.98 299.29 961.30 268.70 C 944.63 238.11 928.14 213.57 906.75 187.25 C 885.37 160.93 864.62 141.05 838.75 119.25 C 812.87 97.46 787.80 81.15 757.70 64.31 C 727.59 47.46 695.99 34.75 662.07 23.93 C 628.16 13.10 584.39 5.52 548.00 2.00
M 539.00 214.00 
C 614.64 221.32 683.95 255.64 736.75 314.25 C 789.55 372.85 817.04 459.22 810.00 538.00 C 802.96 616.78 768.48 683.14 709.75 736.75 C 651.03 790.37 564.92 816.64 486.00 810.00 C 407.08 803.36 341.58 768.48 287.75 710.25 C 233.91 652.03 206.87 565.66 214.00 487.00 C 221.13 408.34 253.91 341.33 313.75 287.75 C 373.60 234.18 456.92 206.06 539.00 214.00 Z"/>
</g>
<g fill="#9D9E9D" fill-opacity="1.00" stroke="None">
<path d="
M 539.00 214.00 
C 456.92 206.06 373.60 234.18 313.75 287.75 C 253.91 341.33 221.13 408.34 214.00 487.00 C 206.87 565.66 233.91 652.03 287.75 710.25 C 341.58 768.48 407.08 803.36 486.00 810.00 C 564.92 816.64 651.03 790.37 709.75 736.75 C 768.48 683.14 802.96 616.78 810.00 538.00 C 817.04 459.22 789.55 372.85 736.75 314.25 C 683.95 255.64 614.64 221.32 539.00 214.00
M 529.00 216.00 
C 567.48 219.72 611.49 229.78 645.23 247.77 C 678.97 265.76 703.37 282.64 729.75 311.25 C 756.14 339.86 771.63 366.25 786.93 402.07 C 802.22 437.90 809.67 487.86 807.22 528.22 C 804.77 568.58 794.63 611.37 776.70 645.70 C 758.76 680.02 741.05 702.94 712.75 729.75 C 684.45 756.56 657.64 771.57 621.92 786.92 C 586.20 802.28 536.02 809.60 495.78 807.22 C 455.53 804.85 412.38 794.74 378.31 776.70 C 344.23 758.65 320.23 741.49 293.75 713.25 C 267.28 685.01 252.07 657.47 237.02 621.98 C 221.98 586.48 213.41 535.27 216.00 495.00 C 218.60 454.73 229.73 412.47 247.31 378.31 C 264.88 344.14 282.89 320.41 311.25 294.25 C 339.61 268.09 366.03 251.25 402.08 237.08 C 438.12 222.90 487.56 211.99 529.00 216.00 Z"/>
</g>
<g fill="#F7F6F6" fill-opacity="1.00" stroke="None">
<path d="
M 529.00 216.00 
C 487.56 211.99 438.12 222.90 402.08 237.08 C 366.03 251.25 339.61 268.09 311.25 294.25 C 282.89 320.41 264.88 344.14 247.31 378.31 C 229.73 412.47 218.60 454.73 216.00 495.00 C 213.41 535.27 221.98 586.48 237.02 621.98 C 252.07 657.47 267.28 685.01 293.75 713.25 C 320.23 741.49 344.23 758.65 378.31 776.70 C 412.38 794.74 455.53 804.85 495.78 807.22 C 536.02 809.60 586.20 802.28 621.92 786.92 C 657.64 771.57 684.45 756.56 712.75 729.75 C 741.05 702.94 758.76 680.02 776.70 645.70 C 794.63 611.37 804.77 568.58 807.22 528.22 C 809.67 487.86 802.22 437.90 786.93 402.07 C 771.63 366.25 756.14 339.86 729.75 311.25 C 703.37 282.64 678.97 265.76 645.23 247.77 C 611.49 229.78 567.48 219.72 529.00 216.00
M 534.00 222.00 
C 607.98 229.16 676.61 260.79 728.25 317.75 C 779.88 374.72 808.17 457.07 802.00 534.00 C 795.83 610.93 763.12 675.75 706.75 728.75 C 650.38 781.75 566.82 807.04 490.00 802.00 C 413.18 796.96 348.25 762.31 295.75 706.25 C 243.26 650.19 215.89 566.59 222.00 490.00 C 228.11 413.41 260.41 347.50 317.75 295.75 C 375.09 243.99 454.96 214.35 534.00 222.00 Z"/>
</g>
<g fill="#9D9E9E" fill-opacity="1.00" stroke="None">
<path d="
M 534.00 222.00 
C 454.96 214.35 375.09 243.99 317.75 295.75 C 260.41 347.50 228.11 413.41 222.00 490.00 C 215.89 566.59 243.26 650.19 295.75 706.25 C 348.25 762.31 413.18 796.96 490.00 802.00 C 566.82 807.04 650.38 781.75 706.75 728.75 C 763.12 675.75 795.83 610.93 802.00 534.00 C 808.17 457.07 779.88 374.72 728.25 317.75 C 676.61 260.79 607.98 229.16 534.00 222.00
M 540.00 225.00 
C 576.08 229.36 617.64 240.86 649.23 258.77 C 680.82 276.69 704.95 294.80 729.25 322.75 C 753.55 350.71 769.10 378.70 782.32 413.68 C 795.54 448.66 802.89 500.04 798.67 538.67 C 794.45 577.30 783.85 615.93 765.70 648.70 C 747.54 681.46 729.58 703.42 701.75 728.75 C 673.92 754.08 646.30 768.06 611.31 782.31 C 576.31 796.55 523.95 801.55 485.00 798.00 C 446.05 794.45 407.49 783.19 374.77 765.23 C 342.05 747.27 319.37 729.37 294.75 701.25 C 270.13 673.13 254.61 645.75 241.22 610.78 C 227.84 575.80 220.85 523.49 225.00 485.00 C 229.15 446.51 240.47 407.90 258.31 375.31 C 276.14 342.71 294.03 319.85 322.25 295.25 C 350.47 270.65 377.21 254.73 413.02 242.02 C 448.84 229.32 499.00 220.04 540.00 225.00 Z"/>
</g>
<g fill="#FEFEFE" fill-opacity="1.00" stroke="None">
<path d="
M 540.00 225.00 
C 499.00 220.04 448.84 229.32 413.02 242.02 C 377.21 254.73 350.47 270.65 322.25 295.25 C 294.03 319.85 276.14 342.71 258.31 375.31 C 240.47 407.90 229.15 446.51 225.00 485.00 C 220.85 523.49 227.84 575.80 241.22 610.78 C 254.61 645.75 270.13 673.13 294.75 701.25 C 319.37 729.37 342.05 747.27 374.77 765.23 C 407.49 783.19 446.05 794.45 485.00 798.00 C 523.95 801.55 576.31 796.55 611.31 782.31 C 646.30 768.06 673.92 754.08 701.75 728.75 C 729.58 703.42 747.54 681.46 765.70 648.70 C 783.85 615.93 794.45 577.30 798.67 538.67 C 802.89 500.04 795.54 448.66 782.32 413.68 C 769.10 378.70 753.55 350.71 729.25 322.75 C 704.95 294.80 680.82 276.69 649.23 258.77 C 617.64 240.86 576.08 229.36 540.00 225.00
M 670.00 603.00 
C 664.80 621.36 641.30 620.54 633.00 605.00
C 630.78 600.85 630.97 597.33 632.00 593.00
C 632.18 591.32 632.57 590.54 633.00 589.00
C 636.04 578.20 634.12 563.36 634.00 552.00 C 633.88 540.64 633.64 529.87 643.25 523.25 C 652.85 516.62 653.69 511.04 662.25 504.25 C 670.81 497.46 672.25 492.51 681.25 485.25 C 690.24 477.99 692.87 470.24 691.00 457.00 C 689.13 443.76 692.99 434.07 691.00 419.00 C 689.01 403.93 703.07 407.18 717.00 407.00 C 730.93 406.82 724.90 424.35 726.00 436.00 C 727.10 447.65 724.39 462.34 726.00 474.00 C 727.61 485.66 724.30 494.64 715.25 501.25 C 706.20 507.86 704.99 513.75 696.25 520.25 C 687.51 526.75 687.28 532.75 677.25 539.25 C 667.22 545.75 668.92 556.67 668.00 568.00 C 667.09 579.33 672.84 592.95 670.00 603.00
M 387.00 466.00 
C 396.39 458.60 403.72 451.76 412.25 442.25 C 420.78 432.73 428.67 428.21 437.25 417.25 C 445.82 406.28 464.01 406.65 478.00 408.00
C 477.70 424.75 478.40 442.33 478.00 459.00 C 477.60 475.67 478.77 493.63 478.00 510.00 C 477.23 526.37 479.64 545.36 478.00 561.00 C 476.36 576.64 483.26 595.46 477.23 608.23 C 471.20 621.00 449.89 620.02 444.70 607.30 C 439.51 594.59 446.61 577.72 445.00 562.00 C 443.39 546.28 445.83 527.45 445.00 511.00 C 444.17 494.55 445.62 475.67 445.00 459.00
C 425.42 475.43 407.21 495.61 389.00 514.00
C 368.92 497.74 351.55 476.39 332.00 459.00
C 332.00 511.33 332.00 563.67 332.00 616.00
C 320.67 616.00 309.33 616.00 298.00 616.00
C 298.00 546.67 298.00 477.33 298.00 408.00
C 311.47 406.99 329.78 406.05 338.25 416.75 C 346.71 427.46 354.49 431.71 362.75 441.25 C 371.02 450.78 379.32 456.46 387.00 466.00
M 619.00 532.00 
C 615.50 532.96 609.53 523.24 605.75 520.25 C 601.97 517.26 595.88 510.31 592.00 507.00
C 584.88 500.92 577.47 492.59 570.75 486.25 C 564.04 479.90 563.69 478.78 564.00 471.00 C 564.31 463.22 563.37 456.79 564.00 450.00 C 564.63 443.21 562.64 434.65 564.00 429.00 C 565.36 423.35 560.68 411.02 565.00 408.00
C 568.67 405.43 576.37 409.27 581.00 408.00 C 585.63 406.73 593.11 408.95 598.00 408.00
C 597.28 422.51 598.96 441.99 598.00 456.00 C 597.05 470.02 609.96 474.91 617.75 484.25 C 625.55 493.58 633.80 499.56 642.00 508.00
C 636.21 516.89 626.75 524.47 619.00 532.00
M 591.00 520.00 
C 604.14 531.23 598.08 547.42 599.00 564.00 C 599.92 580.58 598.31 600.15 599.00 617.00
C 587.50 616.33 574.68 618.33 564.00 616.00
C 562.55 599.92 563.89 576.51 564.00 561.00 C 564.11 545.49 561.00 529.52 544.00 526.00 C 526.99 522.48 506.34 528.64 489.00 526.00
C 489.00 514.33 489.00 502.67 489.00 491.00
C 508.59 491.21 535.10 490.72 554.00 491.00 C 572.90 491.28 576.03 511.87 591.00 520.00
M 384.00 551.00 
C 381.78 554.98 376.50 558.55 379.98 564.02 C 383.46 569.50 387.71 570.24 393.07 568.07 C 398.44 565.91 399.05 559.44 397.00 555.00
C 395.12 551.60 389.58 548.12 392.00 543.00 C 394.42 537.88 389.65 530.10 392.00 526.00 C 394.35 521.90 397.33 519.21 401.00 517.00
C 402.32 516.21 403.29 514.79 405.00 515.00
C 402.18 533.59 409.40 552.00 406.00 569.00
C 401.99 577.59 392.63 581.51 384.00 579.00
C 370.00 574.92 367.88 562.23 371.00 550.00
C 373.90 538.65 370.91 525.80 372.00 514.00
C 385.95 521.51 387.43 537.53 384.00 551.00 Z"/>
</g>
<g fill="#9BD1E4" fill-opacity="1.00" stroke="None">
<path d="
M 633.00 589.00 
C 637.40 578.83 635.48 562.77 635.00 551.00 C 634.52 539.23 635.86 528.58 645.75 521.75 C 655.64 514.92 656.95 508.77 665.75 501.75 C 674.56 494.74 676.61 489.19 685.75 481.75 C 694.90 474.32 691.82 459.92 692.00 448.00 C 692.18 436.08 691.86 420.27 692.00 408.00
C 703.00 408.00 714.00 408.00 725.00 408.00
C 725.82 424.07 723.91 443.24 725.00 459.00 C 726.09 474.76 726.48 490.47 715.25 500.25 C 704.02 510.03 698.99 515.53 689.75 525.75 C 680.51 535.97 669.21 539.96 667.00 554.00 C 664.79 568.04 668.93 588.94 670.00 603.00
C 672.84 592.95 667.09 579.33 668.00 568.00 C 668.92 556.67 667.22 545.75 677.25 539.25 C 687.28 532.75 687.51 526.75 696.25 520.25 C 704.99 513.75 706.20 507.86 715.25 501.25 C 724.30 494.64 727.61 485.66 726.00 474.00 C 724.39 462.34 727.10 447.65 726.00 436.00 C 724.90 424.35 730.93 406.82 717.00 407.00 C 703.07 407.18 689.01 403.93 691.00 419.00 C 692.99 434.07 689.13 443.76 691.00 457.00 C 692.87 470.24 690.24 477.99 681.25 485.25 C 672.25 492.51 670.81 497.46 662.25 504.25 C 653.69 511.04 652.85 516.62 643.25 523.25 C 633.64 529.87 633.88 540.64 634.00 552.00 C 634.12 563.36 636.04 578.20 633.00 589.00 Z"/>
</g>
<g fill="#475259" fill-opacity="1.00" stroke="None">
<path d="
M 387.00 466.00 
C 379.32 456.46 371.02 450.78 362.75 441.25 C 354.49 431.71 346.71 427.46 338.25 416.75 C 329.78 406.05 311.47 406.99 298.00 408.00
C 298.00 477.33 298.00 546.67 298.00 616.00
C 309.33 616.00 320.67 616.00 332.00 616.00
C 332.00 563.67 332.00 511.33 332.00 459.00
C 351.55 476.39 368.92 497.74 389.00 514.00
C 407.21 495.61 425.42 475.43 445.00 459.00
C 445.62 475.67 444.17 494.55 445.00 511.00 C 445.83 527.45 443.39 546.28 445.00 562.00 C 446.61 577.72 439.51 594.59 444.70 607.30 C 449.89 620.02 471.20 621.00 477.23 608.23 C 483.26 595.46 476.36 576.64 478.00 561.00 C 479.64 545.36 477.23 526.37 478.00 510.00 C 478.77 493.63 477.60 475.67 478.00 459.00 C 478.40 442.33 477.70 424.75 478.00 408.00
C 464.01 406.65 445.82 406.28 437.25 417.25 C 428.67 428.21 420.78 432.73 412.25 442.25 C 403.72 451.76 396.39 458.60 387.00 466.00
M 465.00 525.00 
C 465.00 546.00 465.00 567.00 465.00 588.00
C 472.83 590.34 472.16 600.07 466.75 604.75 C 461.34 609.43 448.04 602.32 452.00 595.00 C 455.96 587.68 457.87 580.88 457.00 572.00 C 456.13 563.12 457.01 553.36 457.00 545.00 C 456.99 536.64 453.31 522.83 465.00 525.00 Z"/>
</g>
<g fill="#A3ABB1" fill-opacity="1.00" stroke="None">
<path d="
M 592.00 507.00 
C 591.77 506.84 592.00 506.00 592.00 506.00
C 580.09 495.83 566.11 487.76 565.00 471.00 C 563.89 454.24 565.83 425.82 565.00 408.00
C 560.68 411.02 565.36 423.35 564.00 429.00 C 562.64 434.65 564.63 443.21 564.00 450.00 C 563.37 456.79 564.31 463.22 564.00 471.00 C 563.69 478.78 564.04 479.90 570.75 486.25 C 577.47 492.59 584.88 500.92 592.00 507.00 Z"/>
</g>
<g fill="#444F57" fill-opacity="1.00" stroke="None">
<path d="
M 592.00 506.00 
C 595.85 509.29 601.21 516.16 605.25 518.75 C 609.28 521.35 614.50 532.00 619.00 532.00
C 626.75 524.47 636.21 516.89 642.00 508.00
C 633.80 499.56 625.55 493.58 617.75 484.25 C 609.96 474.91 597.05 470.02 598.00 456.00 C 598.96 441.99 597.28 422.51 598.00 408.00
C 593.11 408.95 585.63 406.73 581.00 408.00 C 576.37 409.27 568.67 405.43 565.00 408.00
C 565.83 425.82 563.89 454.24 565.00 471.00 C 566.11 487.76 580.09 495.83 592.00 506.00 Z"/>
</g>
<g fill="#0993D5" fill-opacity="1.00" stroke="None">
<path d="
M 633.00 589.00 
C 632.57 590.54 632.18 591.32 632.00 593.00
C 631.61 596.74 631.74 601.59 633.00 605.00
C 641.30 620.54 664.80 621.36 670.00 603.00
C 668.93 588.94 664.79 568.04 667.00 554.00 C 669.21 539.96 680.51 535.97 689.75 525.75 C 698.99 515.53 704.02 510.03 715.25 500.25 C 726.48 490.47 726.09 474.76 725.00 459.00 C 723.91 443.24 725.82 424.07 725.00 408.00
C 714.00 408.00 703.00 408.00 692.00 408.00
C 691.86 420.27 692.18 436.08 692.00 448.00 C 691.82 459.92 694.90 474.32 685.75 481.75 C 676.61 489.19 674.56 494.74 665.75 501.75 C 656.95 508.77 655.64 514.92 645.75 521.75 C 635.86 528.58 634.52 539.23 635.00 551.00 C 635.48 562.77 637.40 578.83 633.00 589.00
M 655.00 543.00 
C 655.00 558.00 655.00 573.00 655.00 588.00
C 666.32 589.72 660.06 612.25 648.00 606.00 C 635.94 599.75 647.37 589.93 647.00 580.00 C 646.63 570.07 647.28 553.53 647.00 543.00
C 649.67 543.00 652.33 543.00 655.00 543.00 Z"/>
</g>
<g fill="#71C1E0" fill-opacity="1.00" stroke="None">
<path d="
M 564.00 616.00 
C 564.00 616.04 565.00 616.00 565.00 616.00
C 566.18 602.95 565.03 587.99 565.00 575.00 C 564.97 562.01 568.32 547.75 560.25 537.75 C 552.18 527.75 545.37 523.41 532.00 525.00 C 518.63 526.59 503.52 523.81 490.00 525.00
C 490.00 514.00 490.00 503.00 490.00 492.00
C 504.86 490.81 522.41 493.59 537.00 492.00 C 551.59 490.41 564.35 492.00 572.75 503.25 C 581.15 514.49 588.34 517.13 597.00 527.00
C 595.91 524.68 592.75 521.75 591.00 520.00
C 576.03 511.87 572.90 491.28 554.00 491.00 C 535.10 490.72 508.59 491.21 489.00 491.00
C 489.00 502.67 489.00 514.33 489.00 526.00
C 506.34 528.64 526.99 522.48 544.00 526.00 C 561.00 529.52 564.11 545.49 564.00 561.00 C 563.89 576.51 562.55 599.92 564.00 616.00 Z"/>
</g>
<g fill="#0392D4" fill-opacity="1.00" stroke="None">
<path d="
M 565.00 616.00 
C 576.00 615.99 587.00 616.01 598.00 616.00
C 597.33 586.50 599.33 555.68 597.00 527.00
C 588.34 517.13 581.15 514.49 572.75 503.25 C 564.35 492.00 551.59 490.41 537.00 492.00 C 522.41 493.59 504.86 490.81 490.00 492.00
C 490.00 503.00 490.00 514.00 490.00 525.00
C 503.52 523.81 518.63 526.59 532.00 525.00 C 545.37 523.41 552.18 527.75 560.25 537.75 C 568.32 547.75 564.97 562.01 565.00 575.00 C 565.03 587.99 566.18 602.95 565.00 616.00 Z"/>
</g>
<g fill="#626D78" fill-opacity="1.00" stroke="None">
<path d="
M 592.00 507.00 
C 595.88 510.31 601.97 517.26 605.75 520.25 C 609.53 523.24 615.50 532.96 619.00 532.00
C 614.50 532.00 609.28 521.35 605.25 518.75 C 601.21 516.16 595.85 509.29 592.00 506.00
C 592.00 506.00 591.77 506.84 592.00 507.00 Z"/>
</g>
<g fill="#4FB2D8" fill-opacity="1.00" stroke="None">
<path d="
M 371.00 550.00 
C 374.92 540.25 372.23 527.23 373.00 516.00
C 386.78 523.03 384.23 537.89 384.00 551.00
C 387.43 537.53 385.95 521.51 372.00 514.00
C 370.91 525.80 373.90 538.65 371.00 550.00 Z"/>
</g>
<g fill="#1294D6" fill-opacity="1.00" stroke="None">
<path d="
M 401.00 517.00 
C 388.66 525.93 391.79 543.74 397.00 555.00
C 399.05 559.44 398.44 565.91 393.07 568.07 C 387.71 570.24 383.46 569.50 379.98 564.02 C 376.50 558.55 381.78 554.98 384.00 551.00
C 384.23 537.89 386.78 523.03 373.00 516.00
C 372.23 527.23 374.92 540.25 371.00 550.00
C 367.88 562.23 370.00 574.92 384.00 579.00
C 392.68 580.38 401.58 576.28 406.00 569.00
C 409.40 552.00 402.18 533.59 405.00 515.00
C 403.29 514.79 402.32 516.21 401.00 517.00 Z"/>
</g>
<g fill="#69BEE0" fill-opacity="1.00" stroke="None">
<path d="
M 397.00 555.00 
C 391.79 543.74 388.66 525.93 401.00 517.00
C 397.33 519.21 394.35 521.90 392.00 526.00 C 389.65 530.10 394.42 537.88 392.00 543.00 C 389.58 548.12 395.12 551.60 397.00 555.00 Z"/>
</g>
<g fill="#D4EBF0" fill-opacity="1.00" stroke="None">
<path d="
M 597.00 527.00 
C 599.33 555.68 597.33 586.50 598.00 616.00
C 587.00 616.01 576.00 615.99 565.00 616.00
C 565.00 616.00 564.00 616.04 564.00 616.00
C 574.68 618.33 587.50 616.33 599.00 617.00
C 598.31 600.15 599.92 580.58 599.00 564.00 C 598.08 547.42 604.14 531.23 591.00 520.00
C 592.75 521.75 595.91 524.68 597.00 527.00 Z"/>
</g>
<g fill="#F0F2F3" fill-opacity="1.00" stroke="None">
<path d="
M 465.00 525.00 
C 453.31 522.83 456.99 536.64 457.00 545.00 C 457.01 553.36 456.13 563.12 457.00 572.00 C 457.87 580.88 455.96 587.68 452.00 595.00 C 448.04 602.32 461.34 609.43 466.75 604.75 C 472.16 600.07 472.83 590.34 465.00 588.00
C 465.00 567.00 465.00 546.00 465.00 525.00 Z"/>
</g>
<g fill="#F0F7F8" fill-opacity="1.00" stroke="None">
<path d="
M 655.00 543.00 
C 652.33 543.00 649.67 543.00 647.00 543.00
C 647.28 553.53 646.63 570.07 647.00 580.00 C 647.37 589.93 635.94 599.75 648.00 606.00 C 660.06 612.25 666.32 589.72 655.00 588.00
C 655.00 573.00 655.00 558.00 655.00 543.00 Z"/>
</g>
<g fill="#FEFEFE" fill-opacity="1.00" stroke="None">
<path d="
M 558.00 1024.00 
L 1024.00 1024.00
L 1024.00 553.00
C 1014.20 673.17 962.89 787.11 876.25 874.25 C 789.60 961.39 677.43 1012.24 558.00 1024.00 Z"/>
</g>
<g fill="#FEFEFE" fill-opacity="1.00" stroke="None">
<path d="
M 0.00 1024.00 
L 465.00 1024.00
C 345.95 1012.19 234.02 961.13 147.75 874.25 C 61.48 787.36 10.08 674.75 0.00 555.00
L 0.00 1024.00 Z"/>
</g>
<g fill="#A2D1E1" fill-opacity="1.00" stroke="None">
<path d="
M 384.00 579.00 
C 392.63 581.51 401.99 577.59 406.00 569.00
C 401.58 576.28 392.68 580.38 384.00 579.00 Z"/>
</g>
<g fill="#8CD5E7" fill-opacity="1.00" stroke="None">
<path d="
M 633.00 605.00 
C 631.74 601.59 631.61 596.74 632.00 593.00
C 630.97 597.33 630.78 600.85 633.00 605.00 Z"/>
</g>
</svg>